<svg xmlns="http://www.w3.org/2000/svg" width="230" height="64" viewBox="0 0 230 64" fill="none"><path d="M83.5269 1.02881H86.4953V13.4029H101.654V1.02881H104.622V30.521H101.654V16.2893H86.4953V30.521H83.5269V1.02881Z" fill="url(#paint0_linear_0_28)"></path><path d="M111.596 1.02881H114.824L124.68 23.8052L134.709 1.02881H137.937L124.968 30.521H124.334L111.596 1.02881Z" fill="url(#paint1_linear_0_28)"></path><path fill-rule="evenodd" clip-rule="evenodd" d="M165.574 30.521L151.683 1.02881H150.934L136.87 30.521H140.184L144.824 20.8045H157.649L162.346 30.521H165.574ZM146.208 17.9754L151.308 7.28732L156.381 17.9754H146.208Z" fill="url(#paint2_linear_0_28)"></path><path d="M197.389 6.48713L195.055 8.25895C193.758 6.60144 192.202 5.31545 190.387 4.45812C188.571 3.60079 186.582 3.17212 184.392 3.17212C182.029 3.17212 179.81 3.74368 177.793 4.8582C175.775 6.00131 174.19 7.51593 173.095 9.40205C171.971 11.3168 171.424 13.4601 171.424 15.832C171.424 19.4328 172.663 22.4335 175.17 24.834C177.649 27.2345 180.79 28.4348 184.594 28.4348C188.773 28.4348 192.26 26.8058 195.055 23.5766L197.389 25.3484C195.891 27.2059 194.047 28.6634 191.827 29.6922C189.608 30.721 187.13 31.2354 184.392 31.2354C179.176 31.2354 175.084 29.5207 172.058 26.0914C169.522 23.2051 168.283 19.69 168.283 15.5748C168.283 11.2596 169.81 7.63024 172.865 4.68674C175.92 1.74324 179.752 0.257202 184.363 0.257202C187.13 0.257202 189.666 0.800178 191.885 1.88613C194.133 3.00066 195.949 4.54385 197.389 6.48713Z" fill="url(#paint3_linear_0_28)"></path><path fill-rule="evenodd" clip-rule="evenodd" d="M211.395 1.02881H205.487V30.4924H208.456V16.8037H210.127L220.848 30.4924H224.537L213.816 16.8037C216.323 16.8037 218.283 16.4893 219.695 15.8606C221.107 15.2319 222.202 14.3174 222.952 13.0886C223.73 11.8883 224.104 10.4594 224.104 8.85909C224.104 6.94438 223.528 5.31546 222.433 4.00089C221.309 2.68631 219.868 1.82898 218.11 1.4289C216.957 1.1717 214.709 1.02881 211.395 1.02881ZM208.456 13.9459V3.91515H213.701C215.747 3.91515 217.217 4.08662 218.081 4.42955C218.975 4.77248 219.666 5.37261 220.214 6.17279C220.761 6.97296 221.021 7.85887 221.021 8.85909C221.021 9.85931 220.761 10.7738 220.214 11.6025C219.695 12.4313 218.946 13.0314 217.995 13.4029C217.044 13.7744 215.574 13.9745 213.586 13.9745L208.456 13.9459Z" fill="url(#paint4_linear_0_28)"></path><path d="M19.1172 26.9202C20.2988 26.9202 21.4804 26.7773 22.5755 26.4915C20.1259 26.2343 17.9933 25.2627 16.2354 23.548C14.1604 21.5476 13.123 19.0899 13.123 16.2035C13.123 13.4029 14.1316 11.031 16.1201 9.08771C18.1374 7.14442 20.6158 6.17278 23.5841 6.17278C26.9847 6.17278 29.9819 7.51593 32.5467 10.2022L36.5813 6.22994C34.737 4.25808 32.8349 2.85778 30.9041 2.02902C28.6274 1.05738 26.149 0.571564 23.5265 0.571564C18.512 0.571564 14.4198 2.3148 11.2786 5.80128C8.62724 8.7162 7.30159 12.1741 7.30159 16.1178C7.30159 18.0325 7.61859 19.8329 8.2526 21.5761C10.7886 24.834 14.708 26.9202 19.1172 26.9202Z" fill="#154E7C"></path><path d="M36.1779 16.8894V16.8894H27.6187V21.4333H32.2585C31.6822 22.6621 30.9617 23.6623 30.126 24.4339C27.2153 27.3203 23.2095 28.9492 19.0884 28.9492C16.3506 28.9492 13.757 28.2347 11.5379 27.0059C12.633 28.2062 13.9011 29.1778 15.342 29.978C17.7916 31.3211 20.587 32.007 23.7282 32.007C26.6677 32.007 29.2038 31.3783 31.394 30.1495C33.296 29.0635 34.881 27.5775 36.1779 25.6342V29.6065H40.8177V16.8608H36.1779V16.8894Z" fill="#154E7C"></path><path d="M70.3856 5.17257C67.302 2.11476 63.6421 0.571564 59.3481 0.571564C56.5239 0.571564 53.9014 1.28601 51.4518 2.68631C49.2039 3.9723 47.4172 5.65839 46.0627 7.77313C48.8581 6.2871 52.1146 5.45834 55.544 5.45834C57.8207 5.45834 60.0109 5.82985 62.1147 6.51572C63.6997 6.97296 65.1118 7.83029 66.351 9.08771C68.2819 11.0596 69.2617 13.4601 69.2617 16.3179C69.2617 19.1756 68.3107 21.5761 66.3798 23.548C64.449 25.4913 62.1435 26.4629 59.4057 26.4629C56.985 26.4629 54.8524 25.7199 52.9792 24.2053C50.5872 22.2906 49.3768 19.6614 49.3768 16.3464C49.3768 13.3744 50.3278 10.9453 52.2299 9.00197C52.8062 8.43042 53.4114 7.91602 54.0743 7.51593C50.3567 7.80171 46.8984 9.17344 44.3336 11.3453C43.8436 12.8885 43.5843 14.5175 43.5843 16.2321C43.5843 20.4902 45.0828 24.1767 48.08 27.2917C51.0771 30.4066 54.8524 31.9498 59.3769 31.9498C63.6997 31.9498 67.3885 30.4352 70.4144 27.406C73.4404 24.3768 74.9678 20.6902 74.9678 16.3179C74.9966 11.974 73.4692 8.25895 70.3856 5.17257Z" fill="#154E7C"></path><path d="M19.4739 54.9541L18.6936 55.7034C18.1155 55.1558 17.5086 54.7235 16.8439 54.4353C16.1791 54.147 15.5144 54.0029 14.8785 54.0029C14.0981 54.0029 13.3178 54.2047 12.6241 54.5794C11.9016 54.9541 11.3524 55.5017 10.9478 56.1646C10.5432 56.8275 10.3698 57.5192 10.3698 58.2686C10.3698 59.018 10.5721 59.7385 10.9767 60.4302C11.3814 61.122 11.9594 61.6408 12.6819 62.0443C13.4045 62.4478 14.1849 62.6207 15.0519 62.6207C16.0924 62.6207 16.9595 62.3325 17.682 61.7561C18.4046 61.1796 18.8381 60.4014 18.9537 59.4791H15.7167V58.4992H20.0809C20.0809 60.0556 19.6185 61.2949 18.6936 62.2172C17.7687 63.1395 16.5548 63.6007 14.9941 63.6007C13.1155 63.6007 11.6415 62.9666 10.5432 61.6984C9.70503 60.7185 9.2715 59.5944 9.2715 58.2974C9.2715 57.3463 9.50271 56.4528 9.99405 55.6458C10.4854 54.8099 11.1212 54.1759 11.9883 53.7147C12.8265 53.2536 13.7802 53.023 14.8207 53.023C15.6878 53.023 16.497 53.1671 17.2485 53.4841C18.0288 53.8012 18.7803 54.2912 19.4739 54.9541Z" fill="#2B2B2B"></path><path fill-rule="evenodd" clip-rule="evenodd" d="M32.3643 54.5505C31.3238 53.5418 30.0521 53.023 28.5203 53.023C27.5665 53.023 26.6995 53.2536 25.9191 53.7147C25.081 54.1759 24.4451 54.8099 23.9827 55.6458C23.5202 56.4528 23.289 57.3463 23.289 58.3262C23.289 59.7962 23.8093 61.0355 24.8497 62.0443C25.8613 63.0531 27.133 63.5719 28.6359 63.5719C30.1099 63.5719 31.3527 63.0819 32.3932 62.0443C33.4048 61.0355 33.925 59.7673 33.925 58.2974C33.925 56.8275 33.4048 55.5593 32.3643 54.5505ZM26.4104 54.5794C27.1041 54.2047 27.7978 54.0029 28.5492 54.0029C29.3296 54.0029 30.0521 54.2047 30.6591 54.5505C31.3527 54.9541 31.8729 55.4729 32.2487 56.1069C32.6244 56.741 32.7978 57.4616 32.7978 58.2686C32.7978 59.0756 32.6244 59.7962 32.2487 60.4591C31.8729 61.122 31.3527 61.6408 30.688 62.0155C30.0232 62.3901 29.3007 62.5919 28.5203 62.5919C27.3642 62.5919 26.3526 62.1884 25.5145 61.3526C24.6763 60.5455 24.2717 59.5368 24.2717 58.3262C24.2717 57.5192 24.474 56.7987 24.8497 56.1358C25.2255 55.5017 25.7457 54.9541 26.4104 54.5794Z" fill="#2B2B2B"></path><path d="M37.6245 53.2824H38.636V57.5192H43.7806V53.2824H44.7922V63.3413H43.7806V58.4703H38.636V63.3413H37.6245V53.2824H37.6245Z" fill="#2B2B2B"></path><path d="M49.0119 53.2824H50.1102L53.4628 61.0643L56.8733 53.2824H57.9716L53.5784 63.3413H53.3472L49.0119 53.2824Z" fill="#2B2B2B"></path><path fill-rule="evenodd" clip-rule="evenodd" d="M69.9081 63.3413L65.1971 53.2824H64.937L60.1681 63.3413H61.2953L62.8849 60.0267H67.2202L68.8099 63.3413H69.9081ZM63.3474 59.0468L65.0815 55.4152L66.8156 59.0468H63.3474Z" fill="#2B2B2B"></path><path d="M82.5962 55.1558L81.7869 55.7611C81.3534 55.1846 80.8331 54.7523 80.1973 54.4641C79.5903 54.1759 78.8967 54.0318 78.1741 54.0318C77.3649 54.0318 76.6134 54.2335 75.9198 54.6082C75.2261 54.9829 74.7059 55.5017 74.3302 56.1646C73.9544 56.8275 73.7521 57.548 73.7521 58.3551C73.7521 59.5944 74.1856 60.6032 75.0238 61.439C75.862 62.2749 76.9313 62.6784 78.2319 62.6784C79.6481 62.6784 80.8331 62.1308 81.7869 61.0355L82.5962 61.6408C82.1048 62.2749 81.469 62.7648 80.7175 63.1107C79.9661 63.4566 79.1279 63.6295 78.203 63.6295C76.44 63.6295 75.0238 63.0531 74.0122 61.8714C73.1452 60.8914 72.7405 59.6809 72.7405 58.2974C72.7405 56.8275 73.2608 55.5881 74.3013 54.5794C75.3417 53.5706 76.6423 53.0806 78.203 53.0806C79.1568 53.0806 79.995 53.2536 80.7464 53.6282C81.4979 53.9453 82.1048 54.4641 82.5962 55.1558Z" fill="#2B2B2B"></path><path fill-rule="evenodd" clip-rule="evenodd" d="M89.5038 53.2824H87.5384V63.3701H88.55V58.7009H89.128L92.7697 63.3701H94.0125L90.3708 58.7009C91.209 58.7009 91.8737 58.5856 92.3651 58.3839C92.8275 58.1533 93.2032 57.8363 93.4634 57.4328C93.7235 57.0292 93.8391 56.5393 93.8391 55.9917C93.8391 55.3287 93.6368 54.7811 93.261 54.32C92.8853 53.8588 92.394 53.5706 91.787 53.4265C91.3824 53.34 90.631 53.2824 89.5038 53.2824ZM88.4922 57.6922V54.2623V54.2335H90.2552C90.9489 54.2335 91.4402 54.2623 91.7292 54.4064C92.0183 54.5505 92.2784 54.7235 92.4518 55.0117C92.6541 55.2999 92.7408 55.5881 92.7408 55.934C92.7408 56.2799 92.6541 56.5969 92.4807 56.8851C92.3073 57.1445 92.0472 57.3751 91.7292 57.4904C91.4113 57.6345 90.8911 57.6922 90.2263 57.6922H88.4922Z" fill="#2B2B2B"></path><path d="M98.6079 61.4678L99.475 60.949C100.082 62.0443 100.776 62.6207 101.585 62.6207C101.932 62.6207 102.25 62.5343 102.539 62.3901C102.828 62.246 103.059 62.0155 103.232 61.7561C103.406 61.4967 103.463 61.2084 103.463 60.9202C103.463 60.5744 103.348 60.2573 103.117 59.9403C102.799 59.4791 102.221 58.9603 101.383 58.3262C100.544 57.6922 100.024 57.231 99.8218 56.9428C99.475 56.4816 99.2727 55.9628 99.2727 55.4152C99.2727 54.9829 99.3883 54.5794 99.5906 54.2047C99.7929 53.83 100.111 53.5706 100.487 53.34C100.862 53.1383 101.296 53.023 101.729 53.023C102.192 53.023 102.654 53.1383 103.059 53.3688C103.463 53.5994 103.926 54.0318 104.388 54.6658L103.55 55.2999C103.174 54.8099 102.857 54.4641 102.568 54.32C102.307 54.147 102.018 54.0894 101.7 54.0894C101.296 54.0894 100.949 54.2047 100.689 54.4641C100.429 54.7235 100.313 55.0117 100.313 55.3864C100.313 55.617 100.371 55.8187 100.458 56.0205C100.544 56.2222 100.718 56.4528 100.949 56.6834C101.094 56.7987 101.527 57.1445 102.25 57.6922C103.117 58.3262 103.724 58.9027 104.042 59.4215C104.359 59.9115 104.533 60.4302 104.533 60.9202C104.533 61.6408 104.244 62.2749 103.695 62.8225C103.146 63.3701 102.452 63.6295 101.672 63.6295C101.065 63.6295 100.487 63.4566 99.9952 63.1395C99.475 62.7937 99.0126 62.246 98.6079 61.4678Z" fill="#2B2B2B"></path><path d="M110.342 53.2824H111.354V59.3638C111.354 60.0844 111.354 60.5455 111.383 60.7185C111.44 61.122 111.556 61.439 111.729 61.7272C111.903 61.9866 112.192 62.2172 112.568 62.3901C112.943 62.5631 113.319 62.6495 113.724 62.6495C114.071 62.6495 114.388 62.5919 114.678 62.4478C114.995 62.3037 115.256 62.1019 115.458 61.8714C115.66 61.612 115.805 61.3237 115.92 60.949C115.978 60.6896 116.036 60.1709 116.036 59.3638V53.2824H117.047V59.3638C117.047 60.2573 116.961 60.9779 116.787 61.5543C116.614 62.1308 116.267 62.5919 115.718 62.9954C115.198 63.3989 114.562 63.6007 113.81 63.6007C113.001 63.6007 112.308 63.3989 111.701 63.0242C111.094 62.6495 110.718 62.1308 110.545 61.4967C110.429 61.0932 110.371 60.4014 110.371 59.3638V53.2824H110.342Z" fill="#2B2B2B"></path><path fill-rule="evenodd" clip-rule="evenodd" d="M126.065 53.2824H124.042V63.3701H125.053V58.7009H125.776C127.019 58.7009 127.886 58.6433 128.348 58.528C128.984 58.3551 129.475 58.0668 129.822 57.6345C130.198 57.1734 130.371 56.6257 130.371 55.9628C130.371 55.2711 130.198 54.7235 129.822 54.2912C129.447 53.8588 128.984 53.5706 128.406 53.4265C128.001 53.34 127.221 53.2824 126.065 53.2824ZM125.053 57.6922V54.2623H126.845C127.539 54.2623 128.03 54.32 128.319 54.4353C128.608 54.5505 128.868 54.7523 129.042 55.0405C129.244 55.3287 129.331 55.617 129.331 55.9628C129.331 56.3087 129.215 56.6257 129.042 56.914C128.868 57.2022 128.608 57.4039 128.29 57.5192C127.944 57.6633 127.452 57.721 126.759 57.721L125.053 57.6922Z" fill="#2B2B2B"></path><path fill-rule="evenodd" clip-rule="evenodd" d="M138.059 53.2824H136.036V63.3701H137.048V58.7009H137.77C139.013 58.7009 139.88 58.6433 140.343 58.528C140.978 58.3551 141.47 58.0668 141.817 57.6345C142.192 57.1734 142.366 56.6257 142.366 55.9628C142.366 55.2711 142.192 54.7235 141.817 54.2912C141.441 53.8588 140.978 53.5706 140.4 53.4265C139.996 53.34 139.215 53.2824 138.059 53.2824ZM137.048 57.6922V54.2623H138.84C139.533 54.2623 140.025 54.32 140.314 54.4353C140.603 54.5505 140.863 54.7523 141.036 55.0405C141.239 55.3287 141.325 55.617 141.325 55.9628C141.325 56.3087 141.21 56.6257 141.036 56.914C140.863 57.2022 140.603 57.4039 140.285 57.5192C139.938 57.6633 139.447 57.721 138.753 57.721L137.048 57.6922Z" fill="#2B2B2B"></path><path d="M148.031 53.2824H149.042V62.3901H152.944V63.3701H148.031V53.2824Z" fill="#2B2B2B"></path><path d="M156.846 53.2824H158.002L160.603 57.4328L163.146 53.2824H164.302L161.094 58.528V63.3413H160.112V58.528L156.846 53.2824Z" fill="#2B2B2B"></path><path d="M169.678 61.8425C169.909 61.8425 170.112 61.929 170.285 62.1019C170.459 62.2749 170.545 62.4766 170.545 62.7072C170.545 62.9378 170.459 63.1395 170.285 63.3125C170.112 63.4854 169.909 63.5719 169.678 63.5719C169.447 63.5719 169.245 63.4854 169.071 63.3125C168.898 63.1395 168.811 62.9378 168.811 62.7072C168.811 62.4766 168.898 62.2749 169.071 62.1019C169.245 61.929 169.447 61.8425 169.678 61.8425Z" fill="#2B2B2B"></path><path d="M185.748 55.1558L184.939 55.7611C184.505 55.1846 183.985 54.7523 183.349 54.4641C182.742 54.1759 182.048 54.0318 181.326 54.0318C180.517 54.0318 179.765 54.2335 179.071 54.6082C178.378 54.9829 177.858 55.5017 177.482 56.1646C177.106 56.8275 176.904 57.548 176.904 58.3551C176.904 59.5944 177.337 60.6032 178.175 61.439C179.014 62.2749 180.083 62.6784 181.384 62.6784C182.8 62.6784 183.985 62.1308 184.939 61.0355L185.748 61.6408C185.256 62.2749 184.621 62.7648 183.869 63.1107C183.118 63.4566 182.28 63.6295 181.355 63.6295C179.592 63.6295 178.175 63.0531 177.164 61.8714C176.297 60.8914 175.892 59.6809 175.892 58.2974C175.892 56.8275 176.412 55.5881 177.453 54.5794C178.493 53.5706 179.794 53.0806 181.355 53.0806C182.308 53.0806 183.147 53.2536 183.898 53.6282C184.65 53.9453 185.256 54.4641 185.748 55.1558Z" fill="#2B2B2B"></path><path fill-rule="evenodd" clip-rule="evenodd" d="M199.534 54.5505C198.494 53.5418 197.222 53.023 195.69 53.023C194.765 53.023 193.869 53.2536 193.089 53.7147C192.251 54.1759 191.615 54.8099 191.153 55.6458C190.69 56.4528 190.459 57.3463 190.459 58.3262C190.459 59.7962 190.979 61.0355 192.02 62.0443C193.031 63.0531 194.303 63.5719 195.806 63.5719C197.28 63.5719 198.523 63.0819 199.563 62.0443C200.575 61.0355 201.095 59.7673 201.095 58.2974C201.095 56.8275 200.575 55.5593 199.534 54.5505ZM193.609 54.5794C194.303 54.2047 194.996 54.0029 195.748 54.0029C196.499 54.0029 197.222 54.2047 197.858 54.5505C198.551 54.9541 199.072 55.4729 199.447 56.1069C199.823 56.741 199.997 57.4616 199.997 58.2686C199.997 59.0756 199.823 59.7962 199.447 60.4591C199.072 61.122 198.551 61.6408 197.887 62.0155C197.222 62.3901 196.499 62.5919 195.719 62.5919C194.563 62.5919 193.551 62.1884 192.713 61.3526C191.875 60.5455 191.47 59.5368 191.47 58.3262C191.47 57.5192 191.673 56.7987 192.048 56.1358C192.424 55.5017 192.944 54.9541 193.609 54.5794Z" fill="#2B2B2B"></path><path d="M205.748 63.3413L207.193 53.2824H207.367L211.471 61.5543L215.546 53.2824H215.719L217.164 63.3413H216.182L215.17 56.1358L211.586 63.3413H211.326L207.713 56.0781L206.731 63.3413H205.748Z" fill="#2B2B2B"></path><rect y="42.7529" width="230" height="0.287788" fill="#C6C6C6"></rect><defs><linearGradient id="paint0_linear_0_28" x1="78.4297" y1="114.514" x2="220.816" y2="118.57" gradientUnits="userSpaceOnUse"><stop stop-color="#EB0000"></stop><stop offset="0.3105" stop-color="#7C3B73"></stop><stop offset="0.4494" stop-color="#2965AE"></stop><stop offset="0.7547" stop-color="#12507E"></stop><stop offset="1" stop-color="#1F5576"></stop></linearGradient><linearGradient id="paint1_linear_0_28" x1="78.1285" y1="92.6757" x2="220.491" y2="98.9987" gradientUnits="userSpaceOnUse"><stop stop-color="#EB0000"></stop><stop offset="0.3105" stop-color="#7C3B73"></stop><stop offset="0.4494" stop-color="#2965AE"></stop><stop offset="0.7547" stop-color="#12507E"></stop><stop offset="1" stop-color="#1F5576"></stop></linearGradient><linearGradient id="paint2_linear_0_28" x1="78.1372" y1="85.4052" x2="220.451" y2="92.9111" gradientUnits="userSpaceOnUse"><stop stop-color="#EB0000"></stop><stop offset="0.3105" stop-color="#7C3B73"></stop><stop offset="0.4494" stop-color="#2965AE"></stop><stop offset="0.7547" stop-color="#12507E"></stop><stop offset="1" stop-color="#1F5576"></stop></linearGradient><linearGradient id="paint3_linear_0_28" x1="78.6877" y1="85.815" x2="221.021" y2="92.8116" gradientUnits="userSpaceOnUse"><stop stop-color="#EB0000"></stop><stop offset="0.3105" stop-color="#7C3B73"></stop><stop offset="0.4494" stop-color="#2965AE"></stop><stop offset="0.7547" stop-color="#12507E"></stop><stop offset="1" stop-color="#1F5576"></stop></linearGradient><linearGradient id="paint4_linear_0_28" x1="80.2244" y1="118.574" x2="222.607" y2="121.898" gradientUnits="userSpaceOnUse"><stop stop-color="#EB0000"></stop><stop offset="0.3105" stop-color="#7C3B73"></stop><stop offset="0.4494" stop-color="#2965AE"></stop><stop offset="0.7547" stop-color="#12507E"></stop><stop offset="1" stop-color="#1F5576"></stop></linearGradient></defs></svg>